<svg width="39" height="13" viewBox="0 0 39 13" fill="none" xmlns="http://www.w3.org/2000/svg">
<path d="M0.092 6.416C0.092 5.328 0.342667 4.352 0.844 3.488C1.356 2.624 2.044 1.952 2.908 1.472C3.78267 0.981332 4.73733 0.735999 5.772 0.735999C6.956 0.735999 8.00667 1.02933 8.924 1.616C9.852 2.192 10.524 3.01333 10.94 4.08H8.748C8.46 3.49333 8.06 3.056 7.548 2.768C7.036 2.48 6.444 2.336 5.772 2.336C5.036 2.336 4.38 2.50133 3.804 2.832C3.228 3.16267 2.77467 3.63733 2.444 4.256C2.124 4.87467 1.964 5.59467 1.964 6.416C1.964 7.23733 2.124 7.95733 2.444 8.576C2.77467 9.19467 3.228 9.67467 3.804 10.016C4.38 10.3467 5.036 10.512 5.772 10.512C6.444 10.512 7.036 10.368 7.548 10.08C8.06 9.792 8.46 9.35467 8.748 8.768H10.94C10.524 9.83467 9.852 10.656 8.924 11.232C8.00667 11.808 6.956 12.096 5.772 12.096C4.72667 12.096 3.772 11.856 2.908 11.376C2.044 10.8853 1.356 10.208 0.844 9.344C0.342667 8.48 0.092 7.504 0.092 6.416ZM11.467 7.552C11.467 6.66667 11.6483 5.88267 12.011 5.2C12.3843 4.51733 12.8857 3.98933 13.515 3.616C14.155 3.232 14.859 3.04 15.627 3.04C16.3203 3.04 16.923 3.17867 17.435 3.456C17.9577 3.72267 18.3737 4.05867 18.683 4.464V3.184H20.523V12H18.683V10.688C18.3737 11.104 17.9523 11.4507 17.419 11.728C16.8857 12.0053 16.2777 12.144 15.595 12.144C14.8377 12.144 14.1443 11.952 13.515 11.568C12.8857 11.1733 12.3843 10.6293 12.011 9.936C11.6483 9.232 11.467 8.43733 11.467 7.552ZM18.683 7.584C18.683 6.976 18.555 6.448 18.299 6C18.0537 5.552 17.7283 5.21067 17.323 4.976C16.9177 4.74133 16.4803 4.624 16.011 4.624C15.5417 4.624 15.1043 4.74133 14.699 4.976C14.2937 5.2 13.963 5.536 13.707 5.984C13.4617 6.42133 13.339 6.944 13.339 7.552C13.339 8.16 13.4617 8.69333 13.707 9.152C13.963 9.61067 14.2937 9.96267 14.699 10.208C15.115 10.4427 15.5523 10.56 16.011 10.56C16.4803 10.56 16.9177 10.4427 17.323 10.208C17.7283 9.97333 18.0537 9.632 18.299 9.184C18.555 8.72533 18.683 8.192 18.683 7.584ZM23.7428 4.464C24.0094 4.016 24.3614 3.66933 24.7988 3.424C25.2468 3.168 25.7748 3.04 26.3828 3.04V4.928H25.9188C25.2041 4.928 24.6601 5.10933 24.2868 5.472C23.9241 5.83467 23.7428 6.464 23.7428 7.36V12H21.9188V3.184H23.7428V4.464ZM29.1874 4.672V9.552C29.1874 9.88267 29.262 10.1227 29.4114 10.272C29.5714 10.4107 29.838 10.48 30.2114 10.48H31.3314V12H29.8914C29.07 12 28.4407 11.808 28.0034 11.424C27.566 11.04 27.3474 10.416 27.3474 9.552V4.672H26.3074V3.184H27.3474V0.992H29.1874V3.184H31.3314V4.672H29.1874ZM35.2125 12.144C34.5192 12.144 33.8952 12.0213 33.3405 11.776C32.7965 11.52 32.3645 11.1787 32.0445 10.752C31.7245 10.3147 31.5538 9.82933 31.5325 9.296H33.4205C33.4525 9.66933 33.6285 9.984 33.9485 10.24C34.2792 10.4853 34.6898 10.608 35.1805 10.608C35.6925 10.608 36.0872 10.512 36.3645 10.32C36.6525 10.1173 36.7965 9.86133 36.7965 9.552C36.7965 9.22133 36.6365 8.976 36.3165 8.816C36.0072 8.656 35.5112 8.48 34.8285 8.288C34.1672 8.10667 33.6285 7.93067 33.2125 7.76C32.7965 7.58933 32.4338 7.328 32.1245 6.976C31.8258 6.624 31.6765 6.16 31.6765 5.584C31.6765 5.11467 31.8152 4.688 32.0925 4.304C32.3698 3.90933 32.7645 3.6 33.2765 3.376C33.7992 3.152 34.3965 3.04 35.0685 3.04C36.0712 3.04 36.8765 3.296 37.4845 3.808C38.1032 4.30933 38.4338 4.99733 38.4765 5.872H36.6525C36.6205 5.47733 36.4605 5.16267 36.1725 4.928C35.8845 4.69333 35.4952 4.576 35.0045 4.576C34.5245 4.576 34.1565 4.66667 33.9005 4.848C33.6445 5.02933 33.5165 5.26933 33.5165 5.568C33.5165 5.80267 33.6018 6 33.7725 6.16C33.9432 6.32 34.1512 6.448 34.3965 6.544C34.6418 6.62933 35.0045 6.74133 35.4845 6.88C36.1245 7.05067 36.6472 7.22667 37.0525 7.408C37.4685 7.57867 37.8258 7.83467 38.1245 8.176C38.4232 8.51733 38.5778 8.97067 38.5885 9.536C38.5885 10.0373 38.4498 10.4853 38.1725 10.88C37.8952 11.2747 37.5005 11.584 36.9885 11.808C36.4872 12.032 35.8952 12.144 35.2125 12.144Z" fill="#647995"/>
</svg>
