<svg width="137" height="14" viewBox="0 0 137 14" fill="none" xmlns="http://www.w3.org/2000/svg">
<path d="M0.092 7.416C0.092 6.328 0.342667 5.352 0.844 4.488C1.356 3.624 2.044 2.952 2.908 2.472C3.78267 1.98133 4.73733 1.736 5.772 1.736C6.956 1.736 8.00667 2.02933 8.924 2.616C9.852 3.192 10.524 4.01333 10.94 5.08H8.748C8.46 4.49333 8.06 4.056 7.548 3.768C7.036 3.48 6.444 3.336 5.772 3.336C5.036 3.336 4.38 3.50133 3.804 3.832C3.228 4.16267 2.77467 4.63733 2.444 5.256C2.124 5.87467 1.964 6.59467 1.964 7.416C1.964 8.23733 2.124 8.95733 2.444 9.576C2.77467 10.1947 3.228 10.6747 3.804 11.016C4.38 11.3467 5.036 11.512 5.772 11.512C6.444 11.512 7.036 11.368 7.548 11.08C8.06 10.792 8.46 10.3547 8.748 9.768H10.94C10.524 10.8347 9.852 11.656 8.924 12.232C8.00667 12.808 6.956 13.096 5.772 13.096C4.72667 13.096 3.772 12.856 2.908 12.376C2.044 11.8853 1.356 11.208 0.844 10.344C0.342667 9.48 0.092 8.504 0.092 7.416ZM15.899 13.144C15.067 13.144 14.315 12.9573 13.643 12.584C12.971 12.2 12.443 11.6667 12.059 10.984C11.675 10.2907 11.483 9.49067 11.483 8.584C11.483 7.688 11.6803 6.89333 12.075 6.2C12.4697 5.50667 13.0083 4.97333 13.691 4.6C14.3737 4.22667 15.1363 4.04 15.979 4.04C16.8217 4.04 17.5843 4.22667 18.267 4.6C18.9497 4.97333 19.4883 5.50667 19.883 6.2C20.2777 6.89333 20.475 7.688 20.475 8.584C20.475 9.48 20.2723 10.2747 19.867 10.968C19.4617 11.6613 18.907 12.2 18.203 12.584C17.5097 12.9573 16.7417 13.144 15.899 13.144ZM15.899 11.56C16.3683 11.56 16.8057 11.448 17.211 11.224C17.627 11 17.963 10.664 18.219 10.216C18.475 9.768 18.603 9.224 18.603 8.584C18.603 7.944 18.4803 7.40533 18.235 6.968C17.9897 6.52 17.6643 6.184 17.259 5.96C16.8537 5.736 16.4163 5.624 15.947 5.624C15.4777 5.624 15.0403 5.736 14.635 5.96C14.2403 6.184 13.9257 6.52 13.691 6.968C13.4563 7.40533 13.339 7.944 13.339 8.584C13.339 9.53333 13.579 10.2693 14.059 10.792C14.5497 11.304 15.163 11.56 15.899 11.56ZM31.9501 4.04C32.6435 4.04 33.2621 4.184 33.8061 4.472C34.3608 4.76 34.7928 5.18667 35.1021 5.752C35.4221 6.31733 35.5821 7 35.5821 7.8V13H33.7741V8.072C33.7741 7.28267 33.5768 6.68 33.1821 6.264C32.7875 5.83733 32.2488 5.624 31.5661 5.624C30.8835 5.624 30.3395 5.83733 29.9341 6.264C29.5395 6.68 29.3421 7.28267 29.3421 8.072V13H27.5341V8.072C27.5341 7.28267 27.3368 6.68 26.9421 6.264C26.5475 5.83733 26.0088 5.624 25.3261 5.624C24.6435 5.624 24.0995 5.83733 23.6941 6.264C23.2995 6.68 23.1021 7.28267 23.1021 8.072V13H21.2781V4.184H23.1021V5.192C23.4008 4.82933 23.7795 4.54667 24.2381 4.344C24.6968 4.14133 25.1875 4.04 25.7101 4.04C26.4141 4.04 27.0435 4.18933 27.5981 4.488C28.1528 4.78667 28.5795 5.21867 28.8781 5.784C29.1448 5.25067 29.5608 4.82933 30.1261 4.52C30.6915 4.2 31.2995 4.04 31.9501 4.04ZM47.5751 4.04C48.2685 4.04 48.8871 4.184 49.4311 4.472C49.9858 4.76 50.4178 5.18667 50.7271 5.752C51.0471 6.31733 51.2071 7 51.2071 7.8V13H49.3991V8.072C49.3991 7.28267 49.2018 6.68 48.8071 6.264C48.4125 5.83733 47.8738 5.624 47.1911 5.624C46.5085 5.624 45.9645 5.83733 45.5591 6.264C45.1645 6.68 44.9671 7.28267 44.9671 8.072V13H43.1591V8.072C43.1591 7.28267 42.9618 6.68 42.5671 6.264C42.1725 5.83733 41.6338 5.624 40.9511 5.624C40.2685 5.624 39.7245 5.83733 39.3191 6.264C38.9245 6.68 38.7271 7.28267 38.7271 8.072V13H36.9031V4.184H38.7271V5.192C39.0258 4.82933 39.4045 4.54667 39.8631 4.344C40.3218 4.14133 40.8125 4.04 41.3351 4.04C42.0391 4.04 42.6685 4.18933 43.2231 4.488C43.7778 4.78667 44.2045 5.21867 44.5031 5.784C44.7698 5.25067 45.1858 4.82933 45.7511 4.52C46.3165 4.2 46.9245 4.04 47.5751 4.04ZM53.4561 3.016C53.1255 3.016 52.8481 2.904 52.6241 2.68C52.4001 2.456 52.2881 2.17867 52.2881 1.848C52.2881 1.51733 52.4001 1.24 52.6241 1.016C52.8481 0.791999 53.1255 0.679999 53.4561 0.679999C53.7761 0.679999 54.0481 0.791999 54.2721 1.016C54.4961 1.24 54.6081 1.51733 54.6081 1.848C54.6081 2.17867 54.4961 2.456 54.2721 2.68C54.0481 2.904 53.7761 3.016 53.4561 3.016ZM54.3521 4.184V13H52.5281V4.184H54.3521ZM58.9469 13.144C58.2535 13.144 57.6295 13.0213 57.0749 12.776C56.5309 12.52 56.0989 12.1787 55.7789 11.752C55.4589 11.3147 55.2882 10.8293 55.2669 10.296H57.1549C57.1869 10.6693 57.3629 10.984 57.6829 11.24C58.0135 11.4853 58.4242 11.608 58.9149 11.608C59.4269 11.608 59.8215 11.512 60.0989 11.32C60.3869 11.1173 60.5309 10.8613 60.5309 10.552C60.5309 10.2213 60.3709 9.976 60.0509 9.816C59.7415 9.656 59.2455 9.48 58.5629 9.288C57.9015 9.10667 57.3629 8.93067 56.9469 8.76C56.5309 8.58933 56.1682 8.328 55.8589 7.976C55.5602 7.624 55.4109 7.16 55.4109 6.584C55.4109 6.11467 55.5495 5.688 55.8269 5.304C56.1042 4.90933 56.4989 4.6 57.0109 4.376C57.5335 4.152 58.1309 4.04 58.8029 4.04C59.8055 4.04 60.6109 4.296 61.2189 4.808C61.8375 5.30933 62.1682 5.99733 62.2109 6.872H60.3869C60.3549 6.47733 60.1949 6.16267 59.9069 5.928C59.6189 5.69333 59.2295 5.576 58.7389 5.576C58.2589 5.576 57.8909 5.66667 57.6349 5.848C57.3789 6.02933 57.2509 6.26933 57.2509 6.568C57.2509 6.80267 57.3362 7 57.5069 7.16C57.6775 7.32 57.8855 7.448 58.1309 7.544C58.3762 7.62933 58.7389 7.74133 59.2189 7.88C59.8589 8.05067 60.3815 8.22667 60.7869 8.408C61.2029 8.57867 61.5602 8.83467 61.8589 9.176C62.1575 9.51733 62.3122 9.97067 62.3229 10.536C62.3229 11.0373 62.1842 11.4853 61.9069 11.88C61.6295 12.2747 61.2349 12.584 60.7229 12.808C60.2215 13.032 59.6295 13.144 58.9469 13.144ZM66.4938 13.144C65.8004 13.144 65.1764 13.0213 64.6218 12.776C64.0778 12.52 63.6458 12.1787 63.3258 11.752C63.0058 11.3147 62.8351 10.8293 62.8138 10.296H64.7018C64.7338 10.6693 64.9098 10.984 65.2298 11.24C65.5604 11.4853 65.9711 11.608 66.4618 11.608C66.9738 11.608 67.3684 11.512 67.6458 11.32C67.9338 11.1173 68.0778 10.8613 68.0778 10.552C68.0778 10.2213 67.9178 9.976 67.5978 9.816C67.2884 9.656 66.7924 9.48 66.1098 9.288C65.4484 9.10667 64.9098 8.93067 64.4938 8.76C64.0778 8.58933 63.7151 8.328 63.4058 7.976C63.1071 7.624 62.9578 7.16 62.9578 6.584C62.9578 6.11467 63.0964 5.688 63.3738 5.304C63.6511 4.90933 64.0458 4.6 64.5578 4.376C65.0804 4.152 65.6778 4.04 66.3498 4.04C67.3524 4.04 68.1578 4.296 68.7658 4.808C69.3844 5.30933 69.7151 5.99733 69.7578 6.872H67.9338C67.9018 6.47733 67.7418 6.16267 67.4538 5.928C67.1658 5.69333 66.7764 5.576 66.2858 5.576C65.8058 5.576 65.4378 5.66667 65.1818 5.848C64.9258 6.02933 64.7978 6.26933 64.7978 6.568C64.7978 6.80267 64.8831 7 65.0538 7.16C65.2244 7.32 65.4324 7.448 65.6778 7.544C65.9231 7.62933 66.2858 7.74133 66.7658 7.88C67.4058 8.05067 67.9284 8.22667 68.3338 8.408C68.7498 8.57867 69.1071 8.83467 69.4058 9.176C69.7044 9.51733 69.8591 9.97067 69.8698 10.536C69.8698 11.0373 69.7311 11.4853 69.4538 11.88C69.1764 12.2747 68.7818 12.584 68.2698 12.808C67.7684 13.032 67.1764 13.144 66.4938 13.144ZM71.7686 3.016C71.438 3.016 71.1606 2.904 70.9366 2.68C70.7126 2.456 70.6006 2.17867 70.6006 1.848C70.6006 1.51733 70.7126 1.24 70.9366 1.016C71.1606 0.791999 71.438 0.679999 71.7686 0.679999C72.0886 0.679999 72.3606 0.791999 72.5846 1.016C72.8086 1.24 72.9206 1.51733 72.9206 1.848C72.9206 2.17867 72.8086 2.456 72.5846 2.68C72.3606 2.904 72.0886 3.016 71.7686 3.016ZM72.6646 4.184V13H70.8406V4.184H72.6646ZM77.8834 13.144C77.0514 13.144 76.2994 12.9573 75.6274 12.584C74.9554 12.2 74.4274 11.6667 74.0434 10.984C73.6594 10.2907 73.4674 9.49067 73.4674 8.584C73.4674 7.688 73.6647 6.89333 74.0594 6.2C74.454 5.50667 74.9927 4.97333 75.6754 4.6C76.358 4.22667 77.1207 4.04 77.9634 4.04C78.806 4.04 79.5687 4.22667 80.2514 4.6C80.934 4.97333 81.4727 5.50667 81.8674 6.2C82.262 6.89333 82.4594 7.688 82.4594 8.584C82.4594 9.48 82.2567 10.2747 81.8514 10.968C81.446 11.6613 80.8914 12.2 80.1874 12.584C79.494 12.9573 78.726 13.144 77.8834 13.144ZM77.8834 11.56C78.3527 11.56 78.79 11.448 79.1954 11.224C79.6114 11 79.9474 10.664 80.2034 10.216C80.4594 9.768 80.5874 9.224 80.5874 8.584C80.5874 7.944 80.4647 7.40533 80.2194 6.968C79.974 6.52 79.6487 6.184 79.2434 5.96C78.838 5.736 78.4007 5.624 77.9314 5.624C77.462 5.624 77.0247 5.736 76.6194 5.96C76.2247 6.184 75.91 6.52 75.6754 6.968C75.4407 7.40533 75.3234 7.944 75.3234 8.584C75.3234 9.53333 75.5634 10.2693 76.0434 10.792C76.534 11.304 77.1474 11.56 77.8834 11.56ZM87.7105 4.04C88.4038 4.04 89.0225 4.184 89.5665 4.472C90.1212 4.76 90.5532 5.18667 90.8625 5.752C91.1718 6.31733 91.3265 7 91.3265 7.8V13H89.5185V8.072C89.5185 7.28267 89.3212 6.68 88.9265 6.264C88.5318 5.83733 87.9932 5.624 87.3105 5.624C86.6278 5.624 86.0838 5.83733 85.6785 6.264C85.2838 6.68 85.0865 7.28267 85.0865 8.072V13H83.2625V4.184H85.0865V5.192C85.3852 4.82933 85.7638 4.54667 86.2225 4.344C86.6918 4.14133 87.1878 4.04 87.7105 4.04ZM99.5054 5.672H97.8734V13H96.0334V5.672H94.9934V4.184H96.0334V3.56C96.0334 2.54667 96.3 1.81067 96.8334 1.352C97.3774 0.882666 98.2254 0.648 99.3774 0.648V2.168C98.8227 2.168 98.4334 2.27467 98.2094 2.488C97.9854 2.69067 97.8734 3.048 97.8734 3.56V4.184H99.5054V5.672ZM103.946 13.144C103.114 13.144 102.362 12.9573 101.69 12.584C101.018 12.2 100.49 11.6667 100.106 10.984C99.7219 10.2907 99.5299 9.49067 99.5299 8.584C99.5299 7.688 99.7272 6.89333 100.122 6.2C100.517 5.50667 101.055 4.97333 101.738 4.6C102.421 4.22667 103.183 4.04 104.026 4.04C104.869 4.04 105.631 4.22667 106.314 4.6C106.997 4.97333 107.535 5.50667 107.93 6.2C108.325 6.89333 108.522 7.688 108.522 8.584C108.522 9.48 108.319 10.2747 107.914 10.968C107.509 11.6613 106.954 12.2 106.25 12.584C105.557 12.9573 104.789 13.144 103.946 13.144ZM103.946 11.56C104.415 11.56 104.853 11.448 105.258 11.224C105.674 11 106.01 10.664 106.266 10.216C106.522 9.768 106.65 9.224 106.65 8.584C106.65 7.944 106.527 7.40533 106.282 6.968C106.037 6.52 105.711 6.184 105.306 5.96C104.901 5.736 104.463 5.624 103.994 5.624C103.525 5.624 103.087 5.736 102.682 5.96C102.287 6.184 101.973 6.52 101.738 6.968C101.503 7.40533 101.386 7.944 101.386 8.584C101.386 9.53333 101.626 10.2693 102.106 10.792C102.597 11.304 103.21 11.56 103.946 11.56ZM111.149 5.464C111.416 5.016 111.768 4.66933 112.205 4.424C112.653 4.168 113.181 4.04 113.789 4.04V5.928H113.325C112.61 5.928 112.066 6.10933 111.693 6.472C111.33 6.83467 111.149 7.464 111.149 8.36V13H109.325V4.184H111.149V5.464ZM119.446 1.16V13H117.622V1.16H119.446ZM121.769 3.016C121.438 3.016 121.161 2.904 120.937 2.68C120.713 2.456 120.601 2.17867 120.601 1.848C120.601 1.51733 120.713 1.24 120.937 1.016C121.161 0.791999 121.438 0.679999 121.769 0.679999C122.089 0.679999 122.361 0.791999 122.585 1.016C122.809 1.24 122.921 1.51733 122.921 1.848C122.921 2.17867 122.809 2.456 122.585 2.68C122.361 2.904 122.089 3.016 121.769 3.016ZM122.665 4.184V13H120.841V4.184H122.665ZM127.755 5.672H126.123V13H124.283V5.672H123.243V4.184H124.283V3.56C124.283 2.54667 124.55 1.81067 125.083 1.352C125.627 0.882666 126.475 0.648 127.627 0.648V2.168C127.073 2.168 126.683 2.27467 126.459 2.488C126.235 2.69067 126.123 3.048 126.123 3.56V4.184H127.755V5.672ZM136.452 8.376C136.452 8.70667 136.431 9.00533 136.388 9.272H129.652C129.705 9.976 129.967 10.5413 130.436 10.968C130.905 11.3947 131.481 11.608 132.164 11.608C133.145 11.608 133.839 11.1973 134.244 10.376H136.212C135.945 11.1867 135.46 11.8533 134.756 12.376C134.063 12.888 133.199 13.144 132.164 13.144C131.321 13.144 130.564 12.9573 129.892 12.584C129.231 12.2 128.708 11.6667 128.324 10.984C127.951 10.2907 127.764 9.49067 127.764 8.584C127.764 7.67733 127.945 6.88267 128.308 6.2C128.681 5.50667 129.199 4.97333 129.86 4.6C130.532 4.22667 131.3 4.04 132.164 4.04C132.996 4.04 133.737 4.22133 134.388 4.584C135.039 4.94667 135.545 5.45867 135.908 6.12C136.271 6.77067 136.452 7.52267 136.452 8.376ZM134.548 7.8C134.537 7.128 134.297 6.58933 133.828 6.184C133.359 5.77867 132.777 5.576 132.084 5.576C131.455 5.576 130.916 5.77867 130.468 6.184C130.02 6.57867 129.753 7.11733 129.668 7.8H134.548Z" fill="#647995"/>
</svg>
