<svg width="49" height="13" viewBox="0 0 49 13" fill="none" xmlns="http://www.w3.org/2000/svg">
<path d="M0.092 6.416C0.092 5.328 0.342667 4.352 0.844 3.488C1.356 2.624 2.044 1.952 2.908 1.472C3.78267 0.981332 4.73733 0.735999 5.772 0.735999C6.956 0.735999 8.00667 1.02933 8.924 1.616C9.852 2.192 10.524 3.01333 10.94 4.08H8.748C8.46 3.49333 8.06 3.056 7.548 2.768C7.036 2.48 6.444 2.336 5.772 2.336C5.036 2.336 4.38 2.50133 3.804 2.832C3.228 3.16267 2.77467 3.63733 2.444 4.256C2.124 4.87467 1.964 5.59467 1.964 6.416C1.964 7.23733 2.124 7.95733 2.444 8.576C2.77467 9.19467 3.228 9.67467 3.804 10.016C4.38 10.3467 5.036 10.512 5.772 10.512C6.444 10.512 7.036 10.368 7.548 10.08C8.06 9.792 8.46 9.35467 8.748 8.768H10.94C10.524 9.83467 9.852 10.656 8.924 11.232C8.00667 11.808 6.956 12.096 5.772 12.096C4.72667 12.096 3.772 11.856 2.908 11.376C2.044 10.8853 1.356 10.208 0.844 9.344C0.342667 8.48 0.092 7.504 0.092 6.416ZM13.899 4.464C14.1657 4.016 14.5177 3.66933 14.955 3.424C15.403 3.168 15.931 3.04 16.539 3.04V4.928H16.075C15.3603 4.928 14.8163 5.10933 14.443 5.472C14.0803 5.83467 13.899 6.464 13.899 7.36V12H12.075V3.184H13.899V4.464ZM25.2956 7.376C25.2956 7.70667 25.2743 8.00533 25.2316 8.272H18.4956C18.549 8.976 18.8103 9.54133 19.2796 9.968C19.749 10.3947 20.325 10.608 21.0076 10.608C21.989 10.608 22.6823 10.1973 23.0876 9.376H25.0556C24.789 10.1867 24.3036 10.8533 23.5996 11.376C22.9063 11.888 22.0423 12.144 21.0076 12.144C20.165 12.144 19.4076 11.9573 18.7356 11.584C18.0743 11.2 17.5516 10.6667 17.1676 9.984C16.7943 9.29067 16.6076 8.49067 16.6076 7.584C16.6076 6.67733 16.789 5.88267 17.1516 5.2C17.525 4.50667 18.0423 3.97333 18.7036 3.6C19.3756 3.22667 20.1436 3.04 21.0076 3.04C21.8396 3.04 22.581 3.22133 23.2316 3.584C23.8823 3.94667 24.389 4.45867 24.7516 5.12C25.1143 5.77067 25.2956 6.52267 25.2956 7.376ZM23.3916 6.8C23.381 6.128 23.141 5.58933 22.6716 5.184C22.2023 4.77867 21.621 4.576 20.9276 4.576C20.2983 4.576 19.7596 4.77867 19.3116 5.184C18.8636 5.57867 18.597 6.11733 18.5116 6.8H23.3916ZM25.4826 7.552C25.4826 6.66667 25.664 5.88267 26.0266 5.2C26.4 4.51733 26.9013 3.98933 27.5306 3.616C28.1706 3.232 28.8746 3.04 29.6426 3.04C30.336 3.04 30.9386 3.17867 31.4506 3.456C31.9733 3.72267 32.3893 4.05867 32.6986 4.464V3.184H34.5386V12H32.6986V10.688C32.3893 11.104 31.968 11.4507 31.4346 11.728C30.9013 12.0053 30.2933 12.144 29.6106 12.144C28.8533 12.144 28.16 11.952 27.5306 11.568C26.9013 11.1733 26.4 10.6293 26.0266 9.936C25.664 9.232 25.4826 8.43733 25.4826 7.552ZM32.6986 7.584C32.6986 6.976 32.5706 6.448 32.3146 6C32.0693 5.552 31.744 5.21067 31.3386 4.976C30.9333 4.74133 30.496 4.624 30.0266 4.624C29.5573 4.624 29.12 4.74133 28.7146 4.976C28.3093 5.2 27.9786 5.536 27.7226 5.984C27.4773 6.42133 27.3546 6.944 27.3546 7.552C27.3546 8.16 27.4773 8.69333 27.7226 9.152C27.9786 9.61067 28.3093 9.96267 28.7146 10.208C29.1306 10.4427 29.568 10.56 30.0266 10.56C30.496 10.56 30.9333 10.4427 31.3386 10.208C31.744 9.97333 32.0693 9.632 32.3146 9.184C32.5706 8.72533 32.6986 8.192 32.6986 7.584ZM38.0624 4.672V9.552C38.0624 9.88267 38.137 10.1227 38.2864 10.272C38.4464 10.4107 38.713 10.48 39.0864 10.48H40.2064V12H38.7664C37.945 12 37.3157 11.808 36.8784 11.424C36.441 11.04 36.2224 10.416 36.2224 9.552V4.672H35.1824V3.184H36.2224V0.992H38.0624V3.184H40.2064V4.672H38.0624ZM48.9675 7.376C48.9675 7.70667 48.9462 8.00533 48.9035 8.272H42.1675C42.2208 8.976 42.4822 9.54133 42.9515 9.968C43.4208 10.3947 43.9968 10.608 44.6795 10.608C45.6608 10.608 46.3542 10.1973 46.7595 9.376H48.7275C48.4608 10.1867 47.9755 10.8533 47.2715 11.376C46.5782 11.888 45.7142 12.144 44.6795 12.144C43.8368 12.144 43.0795 11.9573 42.4075 11.584C41.7462 11.2 41.2235 10.6667 40.8395 9.984C40.4662 9.29067 40.2795 8.49067 40.2795 7.584C40.2795 6.67733 40.4608 5.88267 40.8235 5.2C41.1968 4.50667 41.7142 3.97333 42.3755 3.6C43.0475 3.22667 43.8155 3.04 44.6795 3.04C45.5115 3.04 46.2528 3.22133 46.9035 3.584C47.5542 3.94667 48.0608 4.45867 48.4235 5.12C48.7862 5.77067 48.9675 6.52267 48.9675 7.376ZM47.0635 6.8C47.0528 6.128 46.8128 5.58933 46.3435 5.184C45.8742 4.77867 45.2928 4.576 44.5995 4.576C43.9702 4.576 43.4315 4.77867 42.9835 5.184C42.5355 5.57867 42.2688 6.11733 42.1835 6.8H47.0635Z" fill="#647995"/>
</svg>
