<svg width="81" height="13" viewBox="0 0 81 13" fill="none" xmlns="http://www.w3.org/2000/svg">
<path d="M4.332 0.879999C5.516 0.879999 6.55067 1.10933 7.436 1.568C8.332 2.016 9.02 2.66667 9.5 3.52C9.99067 4.36267 10.236 5.34933 10.236 6.48C10.236 7.61067 9.99067 8.592 9.5 9.424C9.02 10.256 8.332 10.896 7.436 11.344C6.55067 11.7813 5.516 12 4.332 12H0.7V0.879999H4.332ZM4.332 10.512C5.63333 10.512 6.63067 10.16 7.324 9.456C8.01733 8.752 8.364 7.76 8.364 6.48C8.364 5.18933 8.01733 4.18133 7.324 3.456C6.63067 2.73067 5.63333 2.368 4.332 2.368H2.524V10.512H4.332ZM10.4358 7.552C10.4358 6.66667 10.6171 5.88267 10.9798 5.2C11.3531 4.51733 11.8544 3.98933 12.4838 3.616C13.1238 3.232 13.8278 3.04 14.5958 3.04C15.2891 3.04 15.8918 3.17867 16.4038 3.456C16.9264 3.72267 17.3424 4.05867 17.6518 4.464V3.184H19.4918V12H17.6518V10.688C17.3424 11.104 16.9211 11.4507 16.3878 11.728C15.8544 12.0053 15.2464 12.144 14.5638 12.144C13.8064 12.144 13.1131 11.952 12.4838 11.568C11.8544 11.1733 11.3531 10.6293 10.9798 9.936C10.6171 9.232 10.4358 8.43733 10.4358 7.552ZM17.6518 7.584C17.6518 6.976 17.5238 6.448 17.2678 6C17.0224 5.552 16.6971 5.21067 16.2918 4.976C15.8864 4.74133 15.4491 4.624 14.9798 4.624C14.5104 4.624 14.0731 4.74133 13.6678 4.976C13.2624 5.2 12.9318 5.536 12.6758 5.984C12.4304 6.42133 12.3078 6.944 12.3078 7.552C12.3078 8.16 12.4304 8.69333 12.6758 9.152C12.9318 9.61067 13.2624 9.96267 13.6678 10.208C14.0838 10.4427 14.5211 10.56 14.9798 10.56C15.4491 10.56 15.8864 10.4427 16.2918 10.208C16.6971 9.97333 17.0224 9.632 17.2678 9.184C17.5238 8.72533 17.6518 8.192 17.6518 7.584ZM24.0875 12.144C23.3942 12.144 22.7702 12.0213 22.2155 11.776C21.6715 11.52 21.2395 11.1787 20.9195 10.752C20.5995 10.3147 20.4288 9.82933 20.4075 9.296H22.2955C22.3275 9.66933 22.5035 9.984 22.8235 10.24C23.1542 10.4853 23.5648 10.608 24.0555 10.608C24.5675 10.608 24.9622 10.512 25.2395 10.32C25.5275 10.1173 25.6715 9.86133 25.6715 9.552C25.6715 9.22133 25.5115 8.976 25.1915 8.816C24.8822 8.656 24.3862 8.48 23.7035 8.288C23.0422 8.10667 22.5035 7.93067 22.0875 7.76C21.6715 7.58933 21.3088 7.328 20.9995 6.976C20.7008 6.624 20.5515 6.16 20.5515 5.584C20.5515 5.11467 20.6902 4.688 20.9675 4.304C21.2448 3.90933 21.6395 3.6 22.1515 3.376C22.6742 3.152 23.2715 3.04 23.9435 3.04C24.9462 3.04 25.7515 3.296 26.3595 3.808C26.9782 4.30933 27.3088 4.99733 27.3515 5.872H25.5275C25.4955 5.47733 25.3355 5.16267 25.0475 4.928C24.7595 4.69333 24.3702 4.576 23.8795 4.576C23.3995 4.576 23.0315 4.66667 22.7755 4.848C22.5195 5.02933 22.3915 5.26933 22.3915 5.568C22.3915 5.80267 22.4768 6 22.6475 6.16C22.8182 6.32 23.0262 6.448 23.2715 6.544C23.5168 6.62933 23.8795 6.74133 24.3595 6.88C24.9995 7.05067 25.5222 7.22667 25.9275 7.408C26.3435 7.57867 26.7008 7.83467 26.9995 8.176C27.2982 8.51733 27.4528 8.97067 27.4635 9.536C27.4635 10.0373 27.3248 10.4853 27.0475 10.88C26.7702 11.2747 26.3755 11.584 25.8635 11.808C25.3622 12.032 24.7702 12.144 24.0875 12.144ZM32.9944 3.04C33.6664 3.04 34.2637 3.184 34.7864 3.472C35.3197 3.76 35.7357 4.18667 36.0344 4.752C36.3437 5.31733 36.4984 6 36.4984 6.8V12H34.6904V7.072C34.6904 6.28267 34.493 5.68 34.0984 5.264C33.7037 4.83733 33.165 4.624 32.4824 4.624C31.7997 4.624 31.2557 4.83733 30.8504 5.264C30.4557 5.68 30.2584 6.28267 30.2584 7.072V12H28.4344V0.16H30.2584V4.208C30.5677 3.83467 30.957 3.54667 31.4264 3.344C31.9064 3.14133 32.429 3.04 32.9944 3.04ZM39.649 4.496C39.9583 4.06933 40.3797 3.72267 40.913 3.456C41.457 3.17867 42.0597 3.04 42.721 3.04C43.4997 3.04 44.2037 3.22667 44.833 3.6C45.4623 3.97333 45.9583 4.50667 46.321 5.2C46.6837 5.88267 46.865 6.66667 46.865 7.552C46.865 8.43733 46.6837 9.232 46.321 9.936C45.9583 10.6293 45.457 11.1733 44.817 11.568C44.1877 11.952 43.489 12.144 42.721 12.144C42.0383 12.144 41.4303 12.0107 40.897 11.744C40.3743 11.4773 39.9583 11.136 39.649 10.72V12H37.825V0.16H39.649V4.496ZM45.009 7.552C45.009 6.944 44.881 6.42133 44.625 5.984C44.3797 5.536 44.049 5.2 43.633 4.976C43.2277 4.74133 42.7903 4.624 42.321 4.624C41.8623 4.624 41.425 4.74133 41.009 4.976C40.6037 5.21067 40.273 5.552 40.017 6C39.7717 6.448 39.649 6.976 39.649 7.584C39.649 8.192 39.7717 8.72533 40.017 9.184C40.273 9.632 40.6037 9.97333 41.009 10.208C41.425 10.4427 41.8623 10.56 42.321 10.56C42.7903 10.56 43.2277 10.4427 43.633 10.208C44.049 9.96267 44.3797 9.61067 44.625 9.152C44.881 8.69333 45.009 8.16 45.009 7.552ZM51.4928 12.144C50.6608 12.144 49.9088 11.9573 49.2368 11.584C48.5648 11.2 48.0368 10.6667 47.6528 9.984C47.2688 9.29067 47.0768 8.49067 47.0768 7.584C47.0768 6.688 47.2741 5.89333 47.6688 5.2C48.0634 4.50667 48.6021 3.97333 49.2848 3.6C49.9674 3.22667 50.7301 3.04 51.5728 3.04C52.4154 3.04 53.1781 3.22667 53.8608 3.6C54.5434 3.97333 55.0821 4.50667 55.4768 5.2C55.8714 5.89333 56.0688 6.688 56.0688 7.584C56.0688 8.48 55.8661 9.27467 55.4608 9.968C55.0554 10.6613 54.5008 11.2 53.7968 11.584C53.1034 11.9573 52.3354 12.144 51.4928 12.144ZM51.4928 10.56C51.9621 10.56 52.3994 10.448 52.8048 10.224C53.2208 10 53.5568 9.664 53.8128 9.216C54.0688 8.768 54.1968 8.224 54.1968 7.584C54.1968 6.944 54.0741 6.40533 53.8288 5.968C53.5834 5.52 53.2581 5.184 52.8528 4.96C52.4474 4.736 52.0101 4.624 51.5408 4.624C51.0714 4.624 50.6341 4.736 50.2288 4.96C49.8341 5.184 49.5194 5.52 49.2848 5.968C49.0501 6.40533 48.9328 6.944 48.9328 7.584C48.9328 8.53333 49.1728 9.26933 49.6528 9.792C50.1434 10.304 50.7568 10.56 51.4928 10.56ZM56.2639 7.552C56.2639 6.66667 56.4452 5.88267 56.8079 5.2C57.1812 4.51733 57.6825 3.98933 58.3119 3.616C58.9519 3.232 59.6559 3.04 60.4239 3.04C61.1172 3.04 61.7199 3.17867 62.2319 3.456C62.7545 3.72267 63.1705 4.05867 63.4799 4.464V3.184H65.3199V12H63.4799V10.688C63.1705 11.104 62.7492 11.4507 62.2159 11.728C61.6825 12.0053 61.0745 12.144 60.3919 12.144C59.6345 12.144 58.9412 11.952 58.3119 11.568C57.6825 11.1733 57.1812 10.6293 56.8079 9.936C56.4452 9.232 56.2639 8.43733 56.2639 7.552ZM63.4799 7.584C63.4799 6.976 63.3519 6.448 63.0959 6C62.8505 5.552 62.5252 5.21067 62.1199 4.976C61.7145 4.74133 61.2772 4.624 60.8079 4.624C60.3385 4.624 59.9012 4.74133 59.4959 4.976C59.0905 5.2 58.7599 5.536 58.5039 5.984C58.2585 6.42133 58.1359 6.944 58.1359 7.552C58.1359 8.16 58.2585 8.69333 58.5039 9.152C58.7599 9.61067 59.0905 9.96267 59.4959 10.208C59.9119 10.4427 60.3492 10.56 60.8079 10.56C61.2772 10.56 61.7145 10.4427 62.1199 10.208C62.5252 9.97333 62.8505 9.632 63.0959 9.184C63.3519 8.72533 63.4799 8.192 63.4799 7.584ZM68.5396 4.464C68.8063 4.016 69.1583 3.66933 69.5956 3.424C70.0436 3.168 70.5716 3.04 71.1796 3.04V4.928H70.7156C70.001 4.928 69.457 5.10933 69.0836 5.472C68.721 5.83467 68.5396 6.464 68.5396 7.36V12H66.7156V3.184H68.5396V4.464ZM71.2483 7.552C71.2483 6.66667 71.4296 5.88267 71.7923 5.2C72.1656 4.51733 72.6669 3.98933 73.2963 3.616C73.9363 3.232 74.6456 3.04 75.4243 3.04C76.0003 3.04 76.5656 3.168 77.1203 3.424C77.6856 3.66933 78.1336 4 78.4643 4.416V0.16H80.3043V12H78.4643V10.672C78.1656 11.0987 77.7496 11.4507 77.2163 11.728C76.6936 12.0053 76.0909 12.144 75.4083 12.144C74.6403 12.144 73.9363 11.952 73.2963 11.568C72.6669 11.1733 72.1656 10.6293 71.7923 9.936C71.4296 9.232 71.2483 8.43733 71.2483 7.552ZM78.4643 7.584C78.4643 6.976 78.3363 6.448 78.0803 6C77.8349 5.552 77.5096 5.21067 77.1043 4.976C76.6989 4.74133 76.2616 4.624 75.7923 4.624C75.3229 4.624 74.8856 4.74133 74.4803 4.976C74.0749 5.2 73.7443 5.536 73.4883 5.984C73.2429 6.42133 73.1203 6.944 73.1203 7.552C73.1203 8.16 73.2429 8.69333 73.4883 9.152C73.7443 9.61067 74.0749 9.96267 74.4803 10.208C74.8963 10.4427 75.3336 10.56 75.7923 10.56C76.2616 10.56 76.6989 10.4427 77.1043 10.208C77.5096 9.97333 77.8349 9.632 78.0803 9.184C78.3363 8.72533 78.4643 8.192 78.4643 7.584Z" fill="#647995"/>
</svg>
