<svg width="44" height="13" viewBox="0 0 44 13" fill="none" xmlns="http://www.w3.org/2000/svg">
<path d="M9.58 0.879999V12H7.756V7.136H2.524V12H0.7V0.879999H2.524V5.648H7.756V0.879999H9.58ZM14.8053 12.144C13.9733 12.144 13.2213 11.9573 12.5493 11.584C11.8773 11.2 11.3493 10.6667 10.9653 9.984C10.5813 9.29067 10.3893 8.49067 10.3893 7.584C10.3893 6.688 10.5866 5.89333 10.9813 5.2C11.3759 4.50667 11.9146 3.97333 12.5973 3.6C13.2799 3.22667 14.0426 3.04 14.8853 3.04C15.7279 3.04 16.4906 3.22667 17.1733 3.6C17.8559 3.97333 18.3946 4.50667 18.7893 5.2C19.1839 5.89333 19.3813 6.688 19.3813 7.584C19.3813 8.48 19.1786 9.27467 18.7733 9.968C18.3679 10.6613 17.8133 11.2 17.1093 11.584C16.4159 11.9573 15.6479 12.144 14.8053 12.144ZM14.8053 10.56C15.2746 10.56 15.7119 10.448 16.1173 10.224C16.5333 10 16.8693 9.664 17.1253 9.216C17.3813 8.768 17.5093 8.224 17.5093 7.584C17.5093 6.944 17.3866 6.40533 17.1413 5.968C16.8959 5.52 16.5706 5.184 16.1653 4.96C15.7599 4.736 15.3226 4.624 14.8533 4.624C14.3839 4.624 13.9466 4.736 13.5413 4.96C13.1466 5.184 12.8319 5.52 12.5973 5.968C12.3626 6.40533 12.2453 6.944 12.2453 7.584C12.2453 8.53333 12.4853 9.26933 12.9653 9.792C13.4559 10.304 14.0693 10.56 14.8053 10.56ZM30.8564 3.04C31.5497 3.04 32.1684 3.184 32.7124 3.472C33.267 3.76 33.699 4.18667 34.0084 4.752C34.3284 5.31733 34.4884 6 34.4884 6.8V12H32.6804V7.072C32.6804 6.28267 32.483 5.68 32.0884 5.264C31.6937 4.83733 31.155 4.624 30.4724 4.624C29.7897 4.624 29.2457 4.83733 28.8404 5.264C28.4457 5.68 28.2484 6.28267 28.2484 7.072V12H26.4404V7.072C26.4404 6.28267 26.243 5.68 25.8484 5.264C25.4537 4.83733 24.915 4.624 24.2324 4.624C23.5497 4.624 23.0057 4.83733 22.6004 5.264C22.2057 5.68 22.0084 6.28267 22.0084 7.072V12H20.1844V3.184H22.0084V4.192C22.307 3.82933 22.6857 3.54667 23.1444 3.344C23.603 3.14133 24.0937 3.04 24.6164 3.04C25.3204 3.04 25.9497 3.18933 26.5044 3.488C27.059 3.78667 27.4857 4.21867 27.7844 4.784C28.051 4.25067 28.467 3.82933 29.0324 3.52C29.5977 3.2 30.2057 3.04 30.8564 3.04ZM43.8894 7.376C43.8894 7.70667 43.868 8.00533 43.8254 8.272H37.0894C37.1427 8.976 37.404 9.54133 37.8734 9.968C38.3427 10.3947 38.9187 10.608 39.6014 10.608C40.5827 10.608 41.276 10.1973 41.6814 9.376H43.6494C43.3827 10.1867 42.8974 10.8533 42.1934 11.376C41.5 11.888 40.636 12.144 39.6014 12.144C38.7587 12.144 38.0014 11.9573 37.3294 11.584C36.668 11.2 36.1454 10.6667 35.7614 9.984C35.388 9.29067 35.2014 8.49067 35.2014 7.584C35.2014 6.67733 35.3827 5.88267 35.7454 5.2C36.1187 4.50667 36.636 3.97333 37.2974 3.6C37.9694 3.22667 38.7374 3.04 39.6014 3.04C40.4334 3.04 41.1747 3.22133 41.8254 3.584C42.476 3.94667 42.9827 4.45867 43.3454 5.12C43.708 5.77067 43.8894 6.52267 43.8894 7.376ZM41.9854 6.8C41.9747 6.128 41.7347 5.58933 41.2654 5.184C40.796 4.77867 40.2147 4.576 39.5214 4.576C38.892 4.576 38.3534 4.77867 37.9054 5.184C37.4574 5.57867 37.1907 6.11733 37.1054 6.8H41.9854Z" fill="#647995"/>
</svg>
