<svg width="81" height="14" viewBox="0 0 81 14" fill="none" xmlns="http://www.w3.org/2000/svg">
<path d="M9.836 13H8.012L2.524 4.696V13H0.7V1.864H2.524L8.012 10.152V1.864H9.836V13ZM15.0553 13.144C14.2233 13.144 13.4713 12.9573 12.7993 12.584C12.1273 12.2 11.5993 11.6667 11.2153 10.984C10.8313 10.2907 10.6393 9.49067 10.6393 8.584C10.6393 7.688 10.8366 6.89333 11.2313 6.2C11.6259 5.50667 12.1646 4.97333 12.8473 4.6C13.5299 4.22667 14.2926 4.04 15.1353 4.04C15.9779 4.04 16.7406 4.22667 17.4233 4.6C18.1059 4.97333 18.6446 5.50667 19.0393 6.2C19.4339 6.89333 19.6313 7.688 19.6313 8.584C19.6313 9.48 19.4286 10.2747 19.0233 10.968C18.6179 11.6613 18.0633 12.2 17.3593 12.584C16.6659 12.9573 15.8979 13.144 15.0553 13.144ZM15.0553 11.56C15.5246 11.56 15.9619 11.448 16.3673 11.224C16.7833 11 17.1193 10.664 17.3753 10.216C17.6313 9.768 17.7593 9.224 17.7593 8.584C17.7593 7.944 17.6366 7.40533 17.3913 6.968C17.1459 6.52 16.8206 6.184 16.4153 5.96C16.0099 5.736 15.5726 5.624 15.1033 5.624C14.6339 5.624 14.1966 5.736 13.7913 5.96C13.3966 6.184 13.0819 6.52 12.8473 6.968C12.6126 7.40533 12.4953 7.944 12.4953 8.584C12.4953 9.53333 12.7353 10.2693 13.2153 10.792C13.7059 11.304 14.3193 11.56 15.0553 11.56ZM22.5624 5.672V10.552C22.5624 10.8827 22.637 11.1227 22.7864 11.272C22.9464 11.4107 23.213 11.48 23.5864 11.48H24.7064V13H23.2664C22.445 13 21.8157 12.808 21.3784 12.424C20.941 12.04 20.7224 11.416 20.7224 10.552V5.672H19.6824V4.184H20.7224V1.992H22.5624V4.184H24.7064V5.672H22.5624ZM26.3155 3.016C25.9848 3.016 25.7075 2.904 25.4835 2.68C25.2595 2.456 25.1475 2.17867 25.1475 1.848C25.1475 1.51733 25.2595 1.24 25.4835 1.016C25.7075 0.791999 25.9848 0.679999 26.3155 0.679999C26.6355 0.679999 26.9075 0.791999 27.1315 1.016C27.3555 1.24 27.4675 1.51733 27.4675 1.848C27.4675 2.17867 27.3555 2.456 27.1315 2.68C26.9075 2.904 26.6355 3.016 26.3155 3.016ZM27.2115 4.184V13H25.3875V4.184H27.2115ZM32.3023 5.672H30.6703V13H28.8303V5.672H27.7903V4.184H28.8303V3.56C28.8303 2.54667 29.0969 1.81067 29.6303 1.352C30.1743 0.882666 31.0223 0.648 32.1743 0.648V2.168C31.6196 2.168 31.2303 2.27467 31.0063 2.488C30.7823 2.69067 30.6703 3.048 30.6703 3.56V4.184H32.3023V5.672ZM33.8468 3.016C33.5161 3.016 33.2388 2.904 33.0148 2.68C32.7908 2.456 32.6788 2.17867 32.6788 1.848C32.6788 1.51733 32.7908 1.24 33.0148 1.016C33.2388 0.791999 33.5161 0.679999 33.8468 0.679999C34.1668 0.679999 34.4388 0.791999 34.6628 1.016C34.8868 1.24 34.9988 1.51733 34.9988 1.848C34.9988 2.17867 34.8868 2.456 34.6628 2.68C34.4388 2.904 34.1668 3.016 33.8468 3.016ZM34.7428 4.184V13H32.9188V4.184H34.7428ZM35.5295 8.584C35.5295 7.67733 35.7108 6.88267 36.0735 6.2C36.4468 5.50667 36.9588 4.97333 37.6095 4.6C38.2602 4.22667 39.0068 4.04 39.8495 4.04C40.9162 4.04 41.7962 4.296 42.4895 4.808C43.1935 5.30933 43.6682 6.02933 43.9135 6.968H41.9455C41.7855 6.53067 41.5295 6.18933 41.1775 5.944C40.8255 5.69867 40.3828 5.576 39.8495 5.576C39.1028 5.576 38.5055 5.84267 38.0575 6.376C37.6202 6.89867 37.4015 7.63467 37.4015 8.584C37.4015 9.53333 37.6202 10.2747 38.0575 10.808C38.5055 11.3413 39.1028 11.608 39.8495 11.608C40.9055 11.608 41.6042 11.144 41.9455 10.216H43.9135C43.6575 11.112 43.1775 11.8267 42.4735 12.36C41.7695 12.8827 40.8948 13.144 39.8495 13.144C39.0068 13.144 38.2602 12.9573 37.6095 12.584C36.9588 12.2 36.4468 11.6667 36.0735 10.984C35.7108 10.2907 35.5295 9.49067 35.5295 8.584ZM44.1233 8.552C44.1233 7.66667 44.3046 6.88267 44.6673 6.2C45.0406 5.51733 45.5419 4.98933 46.1713 4.616C46.8113 4.232 47.5153 4.04 48.2833 4.04C48.9766 4.04 49.5793 4.17867 50.0913 4.456C50.6139 4.72267 51.0299 5.05867 51.3393 5.464V4.184H53.1793V13H51.3393V11.688C51.0299 12.104 50.6086 12.4507 50.0753 12.728C49.5419 13.0053 48.9339 13.144 48.2513 13.144C47.4939 13.144 46.8006 12.952 46.1713 12.568C45.5419 12.1733 45.0406 11.6293 44.6673 10.936C44.3046 10.232 44.1233 9.43733 44.1233 8.552ZM51.3393 8.584C51.3393 7.976 51.2113 7.448 50.9553 7C50.7099 6.552 50.3846 6.21067 49.9793 5.976C49.5739 5.74133 49.1366 5.624 48.6673 5.624C48.1979 5.624 47.7606 5.74133 47.3553 5.976C46.9499 6.2 46.6193 6.536 46.3633 6.984C46.1179 7.42133 45.9953 7.944 45.9953 8.552C45.9953 9.16 46.1179 9.69333 46.3633 10.152C46.6193 10.6107 46.9499 10.9627 47.3553 11.208C47.7713 11.4427 48.2086 11.56 48.6673 11.56C49.1366 11.56 49.5739 11.4427 49.9793 11.208C50.3846 10.9733 50.7099 10.632 50.9553 10.184C51.2113 9.72533 51.3393 9.192 51.3393 8.584ZM56.703 5.672V10.552C56.703 10.8827 56.7777 11.1227 56.927 11.272C57.087 11.4107 57.3537 11.48 57.727 11.48H58.847V13H57.407C56.5857 13 55.9563 12.808 55.519 12.424C55.0817 12.04 54.863 11.416 54.863 10.552V5.672H53.823V4.184H54.863V1.992H56.703V4.184H58.847V5.672H56.703ZM60.4561 3.016C60.1255 3.016 59.8481 2.904 59.6241 2.68C59.4001 2.456 59.2881 2.17867 59.2881 1.848C59.2881 1.51733 59.4001 1.24 59.6241 1.016C59.8481 0.791999 60.1255 0.679999 60.4561 0.679999C60.7761 0.679999 61.0481 0.791999 61.2721 1.016C61.4961 1.24 61.6081 1.51733 61.6081 1.848C61.6081 2.17867 61.4961 2.456 61.2721 2.68C61.0481 2.904 60.7761 3.016 60.4561 3.016ZM61.3521 4.184V13H59.5281V4.184H61.3521ZM66.5709 13.144C65.7389 13.144 64.9869 12.9573 64.3149 12.584C63.6429 12.2 63.1149 11.6667 62.7309 10.984C62.3469 10.2907 62.1549 9.49067 62.1549 8.584C62.1549 7.688 62.3522 6.89333 62.7469 6.2C63.1415 5.50667 63.6802 4.97333 64.3629 4.6C65.0455 4.22667 65.8082 4.04 66.6509 4.04C67.4935 4.04 68.2562 4.22667 68.9389 4.6C69.6215 4.97333 70.1602 5.50667 70.5549 6.2C70.9495 6.89333 71.1469 7.688 71.1469 8.584C71.1469 9.48 70.9442 10.2747 70.5389 10.968C70.1335 11.6613 69.5789 12.2 68.8749 12.584C68.1815 12.9573 67.4135 13.144 66.5709 13.144ZM66.5709 11.56C67.0402 11.56 67.4775 11.448 67.8829 11.224C68.2989 11 68.6349 10.664 68.8909 10.216C69.1469 9.768 69.2749 9.224 69.2749 8.584C69.2749 7.944 69.1522 7.40533 68.9069 6.968C68.6615 6.52 68.3362 6.184 67.9309 5.96C67.5255 5.736 67.0882 5.624 66.6189 5.624C66.1495 5.624 65.7122 5.736 65.3069 5.96C64.9122 6.184 64.5975 6.52 64.3629 6.968C64.1282 7.40533 64.0109 7.944 64.0109 8.584C64.0109 9.53333 64.2509 10.2693 64.7309 10.792C65.2215 11.304 65.8349 11.56 66.5709 11.56ZM76.398 4.04C77.0913 4.04 77.71 4.184 78.254 4.472C78.8087 4.76 79.2407 5.18667 79.55 5.752C79.8593 6.31733 80.014 7 80.014 7.8V13H78.206V8.072C78.206 7.28267 78.0087 6.68 77.614 6.264C77.2193 5.83733 76.6807 5.624 75.998 5.624C75.3153 5.624 74.7713 5.83733 74.366 6.264C73.9713 6.68 73.774 7.28267 73.774 8.072V13H71.95V4.184H73.774V5.192C74.0727 4.82933 74.4513 4.54667 74.91 4.344C75.3793 4.14133 75.8753 4.04 76.398 4.04Z" fill="#647995"/>
</svg>
