<svg width="71" height="18" viewBox="0 0 71 18" fill="none" xmlns="http://www.w3.org/2000/svg">
<path d="M8.476 5.192C8.476 5.75733 8.34267 6.29067 8.076 6.792C7.80933 7.29333 7.38267 7.704 6.796 8.024C6.20933 8.33333 5.45733 8.488 4.54 8.488H2.524V13H0.7V1.88H4.54C5.39333 1.88 6.11333 2.02933 6.7 2.328C7.29733 2.616 7.74 3.01067 8.028 3.512C8.32667 4.01333 8.476 4.57333 8.476 5.192ZM4.54 7C5.23333 7 5.75067 6.84533 6.092 6.536C6.43333 6.216 6.604 5.768 6.604 5.192C6.604 3.976 5.916 3.368 4.54 3.368H2.524V7H4.54ZM11.0396 1.16V13H9.21563V1.16H11.0396ZM11.8264 8.552C11.8264 7.66667 12.0077 6.88267 12.3704 6.2C12.7437 5.51733 13.245 4.98933 13.8744 4.616C14.5144 4.232 15.2184 4.04 15.9864 4.04C16.6797 4.04 17.2824 4.17867 17.7944 4.456C18.317 4.72267 18.733 5.05867 19.0424 5.464V4.184H20.8824V13H19.0424V11.688C18.733 12.104 18.3117 12.4507 17.7784 12.728C17.245 13.0053 16.637 13.144 15.9544 13.144C15.197 13.144 14.5037 12.952 13.8744 12.568C13.245 12.1733 12.7437 11.6293 12.3704 10.936C12.0077 10.232 11.8264 9.43733 11.8264 8.552ZM19.0424 8.584C19.0424 7.976 18.9144 7.448 18.6584 7C18.413 6.552 18.0877 6.21067 17.6824 5.976C17.277 5.74133 16.8397 5.624 16.3704 5.624C15.901 5.624 15.4637 5.74133 15.0584 5.976C14.653 6.2 14.3224 6.536 14.0664 6.984C13.821 7.42133 13.6984 7.944 13.6984 8.552C13.6984 9.16 13.821 9.69333 14.0664 10.152C14.3224 10.6107 14.653 10.9627 15.0584 11.208C15.4744 11.4427 15.9117 11.56 16.3704 11.56C16.8397 11.56 17.277 11.4427 17.6824 11.208C18.0877 10.9733 18.413 10.632 18.6584 10.184C18.9144 9.72533 19.0424 9.192 19.0424 8.584ZM26.7261 4.04C27.4195 4.04 28.0381 4.184 28.5821 4.472C29.1368 4.76 29.5688 5.18667 29.8781 5.752C30.1875 6.31733 30.3421 7 30.3421 7.8V13H28.5341V8.072C28.5341 7.28267 28.3368 6.68 27.9421 6.264C27.5475 5.83733 27.0088 5.624 26.3261 5.624C25.6435 5.624 25.0995 5.83733 24.6941 6.264C24.2995 6.68 24.1021 7.28267 24.1021 8.072V13H22.2781V4.184H24.1021V5.192C24.4008 4.82933 24.7795 4.54667 25.2381 4.344C25.7075 4.14133 26.2035 4.04 26.7261 4.04ZM34.217 8.552C34.217 7.66667 34.3983 6.88267 34.761 6.2C35.1343 5.51733 35.6357 4.98933 36.265 4.616C36.905 4.232 37.609 4.04 38.377 4.04C39.0703 4.04 39.673 4.17867 40.185 4.456C40.7077 4.72267 41.1237 5.05867 41.433 5.464V4.184H43.273V13H41.433V11.688C41.1237 12.104 40.7023 12.4507 40.169 12.728C39.6357 13.0053 39.0277 13.144 38.345 13.144C37.5877 13.144 36.8943 12.952 36.265 12.568C35.6357 12.1733 35.1343 11.6293 34.761 10.936C34.3983 10.232 34.217 9.43733 34.217 8.552ZM41.433 8.584C41.433 7.976 41.305 7.448 41.049 7C40.8037 6.552 40.4783 6.21067 40.073 5.976C39.6677 5.74133 39.2303 5.624 38.761 5.624C38.2917 5.624 37.8543 5.74133 37.449 5.976C37.0437 6.2 36.713 6.536 36.457 6.984C36.2117 7.42133 36.089 7.944 36.089 8.552C36.089 9.16 36.2117 9.69333 36.457 10.152C36.713 10.6107 37.0437 10.9627 37.449 11.208C37.865 11.4427 38.3023 11.56 38.761 11.56C39.2303 11.56 39.6677 11.4427 40.073 11.208C40.4783 10.9733 40.8037 10.632 41.049 10.184C41.305 9.72533 41.433 9.192 41.433 8.584ZM49.953 5.672V10.552C49.953 10.8827 50.0277 11.1227 50.177 11.272C50.337 11.4107 50.6037 11.48 50.977 11.48H52.097V13H50.657C49.8357 13 49.2063 12.808 48.769 12.424C48.3317 12.04 48.113 11.416 48.113 10.552V5.672H47.073V4.184H48.113V1.992H49.953V4.184H52.097V5.672H49.953ZM54.6021 5.464C54.8688 5.016 55.2208 4.66933 55.6581 4.424C56.1061 4.168 56.6341 4.04 57.2421 4.04V5.928H56.7781C56.0635 5.928 55.5195 6.10933 55.1461 6.472C54.7835 6.83467 54.6021 7.464 54.6021 8.36V13H52.7781V4.184H54.6021V5.464ZM58.8468 3.016C58.5161 3.016 58.2388 2.904 58.0148 2.68C57.7908 2.456 57.6788 2.17867 57.6788 1.848C57.6788 1.51733 57.7908 1.24 58.0148 1.016C58.2388 0.791999 58.5161 0.679999 58.8468 0.679999C59.1668 0.679999 59.4388 0.791999 59.6628 1.016C59.8868 1.24 59.9988 1.51733 59.9988 1.848C59.9988 2.17867 59.8868 2.456 59.6628 2.68C59.4388 2.904 59.1668 3.016 58.8468 3.016ZM59.7428 4.184V13H57.9188V4.184H59.7428ZM62.9615 5.48C63.2708 5.07467 63.6922 4.73333 64.2255 4.456C64.7588 4.17867 65.3615 4.04 66.0335 4.04C66.8015 4.04 67.5002 4.232 68.1295 4.616C68.7695 4.98933 69.2708 5.51733 69.6335 6.2C69.9962 6.88267 70.1775 7.66667 70.1775 8.552C70.1775 9.43733 69.9962 10.232 69.6335 10.936C69.2708 11.6293 68.7695 12.1733 68.1295 12.568C67.5002 12.952 66.8015 13.144 66.0335 13.144C65.3615 13.144 64.7642 13.0107 64.2415 12.744C63.7188 12.4667 63.2922 12.1253 62.9615 11.72V17.192H61.1375V4.184H62.9615V5.48ZM68.3215 8.552C68.3215 7.944 68.1935 7.42133 67.9375 6.984C67.6922 6.536 67.3615 6.2 66.9455 5.976C66.5402 5.74133 66.1028 5.624 65.6335 5.624C65.1748 5.624 64.7375 5.74133 64.3215 5.976C63.9162 6.21067 63.5855 6.552 63.3295 7C63.0842 7.448 62.9615 7.976 62.9615 8.584C62.9615 9.192 63.0842 9.72533 63.3295 10.184C63.5855 10.632 63.9162 10.9733 64.3215 11.208C64.7375 11.4427 65.1748 11.56 65.6335 11.56C66.1028 11.56 66.5402 11.4427 66.9455 11.208C67.3615 10.9627 67.6922 10.6107 67.9375 10.152C68.1935 9.69333 68.3215 9.16 68.3215 8.552Z" fill="#1D2433"/>
</svg>
