<svg width="47" height="13" viewBox="0 0 47 13" fill="none" xmlns="http://www.w3.org/2000/svg">
<path d="M16.18 0.879999L12.884 12H10.82L8.484 3.584L6.004 12L3.956 12.016L0.804 0.879999H2.74L5.044 9.936L7.54 0.879999H9.588L11.908 9.888L14.228 0.879999H16.18ZM16.0764 7.552C16.0764 6.66667 16.2577 5.88267 16.6204 5.2C16.9937 4.51733 17.495 3.98933 18.1244 3.616C18.7644 3.232 19.4684 3.04 20.2364 3.04C20.9297 3.04 21.5324 3.17867 22.0444 3.456C22.567 3.72267 22.983 4.05867 23.2924 4.464V3.184H25.1324V12H23.2924V10.688C22.983 11.104 22.5617 11.4507 22.0284 11.728C21.495 12.0053 20.887 12.144 20.2044 12.144C19.447 12.144 18.7537 11.952 18.1244 11.568C17.495 11.1733 16.9937 10.6293 16.6204 9.936C16.2577 9.232 16.0764 8.43733 16.0764 7.552ZM23.2924 7.584C23.2924 6.976 23.1644 6.448 22.9084 6C22.663 5.552 22.3377 5.21067 21.9324 4.976C21.527 4.74133 21.0897 4.624 20.6204 4.624C20.151 4.624 19.7137 4.74133 19.3084 4.976C18.903 5.2 18.5724 5.536 18.3164 5.984C18.071 6.42133 17.9484 6.944 17.9484 7.552C17.9484 8.16 18.071 8.69333 18.3164 9.152C18.5724 9.61067 18.903 9.96267 19.3084 10.208C19.7244 10.4427 20.1617 10.56 20.6204 10.56C21.0897 10.56 21.527 10.4427 21.9324 10.208C22.3377 9.97333 22.663 9.632 22.9084 9.184C23.1644 8.72533 23.2924 8.192 23.2924 7.584ZM28.3521 0.16V12H26.5281V0.16H28.3521ZM31.5709 0.16V12H29.7469V0.16H31.5709ZM41.0456 7.376C41.0456 7.70667 41.0243 8.00533 40.9816 8.272H34.2456C34.299 8.976 34.5603 9.54133 35.0296 9.968C35.499 10.3947 36.075 10.608 36.7576 10.608C37.739 10.608 38.4323 10.1973 38.8376 9.376H40.8056C40.539 10.1867 40.0536 10.8533 39.3496 11.376C38.6563 11.888 37.7923 12.144 36.7576 12.144C35.915 12.144 35.1576 11.9573 34.4856 11.584C33.8243 11.2 33.3016 10.6667 32.9176 9.984C32.5443 9.29067 32.3576 8.49067 32.3576 7.584C32.3576 6.67733 32.539 5.88267 32.9016 5.2C33.275 4.50667 33.7923 3.97333 34.4536 3.6C35.1256 3.22667 35.8936 3.04 36.7576 3.04C37.5896 3.04 38.331 3.22133 38.9816 3.584C39.6323 3.94667 40.139 4.45867 40.5016 5.12C40.8643 5.77067 41.0456 6.52267 41.0456 7.376ZM39.1416 6.8C39.131 6.128 38.891 5.58933 38.4216 5.184C37.9523 4.77867 37.371 4.576 36.6776 4.576C36.0483 4.576 35.5096 4.77867 35.0616 5.184C34.6136 5.57867 34.347 6.11733 34.2616 6.8H39.1416ZM43.9686 4.672V9.552C43.9686 9.88267 44.0433 10.1227 44.1926 10.272C44.3526 10.4107 44.6193 10.48 44.9926 10.48H46.1126V12H44.6726C43.8513 12 43.222 11.808 42.7846 11.424C42.3473 11.04 42.1286 10.416 42.1286 9.552V4.672H41.0886V3.184H42.1286V0.992H43.9686V3.184H46.1126V4.672H43.9686Z" fill="#647995"/>
</svg>
